<svg height="1774" width="720" xmlns="http://www.w3.org/2000/svg">
<rect height="1774" fill="#555" width="720"></rect>
<text fill="#7f7" font-family="Courier New" font-size="12" xml:space="preserve">
<tspan x="10" y="26">25 megabytes installed</tspan>
<tspan x="10" y="42"></tspan>
<tspan x="10" y="58">node_modules</tspan>
<tspan x="10" y="74">└─┬ stormpath@0.20.1 </tspan>
<tspan x="10" y="90">  ├── async@1.5.2 </tspan>
<tspan x="10" y="106">  ├── deep-extend@0.4.1 </tspan>
<tspan x="10" y="122">  ├── jwt-simple@0.4.1 </tspan>
<tspan x="10" y="138">  ├─┬ memcached@2.2.2 </tspan>
<tspan x="10" y="154">  │ ├─┬ hashring@3.2.0 </tspan>
<tspan x="10" y="170">  │ │ ├── connection-parse@0.0.7 </tspan>
<tspan x="10" y="186">  │ │ └── simple-lru-cache@0.0.2 </tspan>
<tspan x="10" y="202">  │ └─┬ jackpot@0.0.6 </tspan>
<tspan x="10" y="218">  │   └── retry@0.6.0 </tspan>
<tspan x="10" y="234">  ├── moment@2.18.1 </tspan>
<tspan x="10" y="250">  ├─┬ njwt@0.4.0 </tspan>
<tspan x="10" y="266">  │ ├─┬ ecdsa-sig-formatter@1.0.9 </tspan>
<tspan x="10" y="282">  │ │ ├── base64url@2.0.0 </tspan>
<tspan x="10" y="298">  │ │ └── safe-buffer@5.0.1 </tspan>
<tspan x="10" y="314">  │ └── uuid@2.0.3 </tspan>
<tspan x="10" y="330">  ├─┬ properties-parser@0.3.1 </tspan>
<tspan x="10" y="346">  │ └── string.prototype.codepointat@0.2.0 </tspan>
<tspan x="10" y="362">  ├─┬ redis@2.6.5 </tspan>
<tspan x="10" y="378">  │ ├── double-ended-queue@2.1.0-0 </tspan>
<tspan x="10" y="394">  │ ├── redis-commands@1.3.1 </tspan>
<tspan x="10" y="410">  │ └── redis-parser@2.6.0 </tspan>
<tspan x="10" y="426">  ├─┬ request@2.74.0 </tspan>
<tspan x="10" y="442">  │ ├── aws-sign2@0.6.0 </tspan>
<tspan x="10" y="458">  │ ├── aws4@1.6.0 </tspan>
<tspan x="10" y="474">  │ ├─┬ bl@1.1.2 </tspan>
<tspan x="10" y="490">  │ │ └─┬ readable-stream@2.0.6 </tspan>
<tspan x="10" y="506">  │ │   ├── core-util-is@1.0.2 </tspan>
<tspan x="10" y="522">  │ │   ├── inherits@2.0.3 </tspan>
<tspan x="10" y="538">  │ │   ├── isarray@1.0.0 </tspan>
<tspan x="10" y="554">  │ │   ├── process-nextick-args@1.0.7 </tspan>
<tspan x="10" y="570">  │ │   ├── string_decoder@0.10.31 </tspan>
<tspan x="10" y="586">  │ │   └── util-deprecate@1.0.2 </tspan>
<tspan x="10" y="602">  │ ├── caseless@0.11.0 </tspan>
<tspan x="10" y="618">  │ ├─┬ combined-stream@1.0.5 </tspan>
<tspan x="10" y="634">  │ │ └── delayed-stream@1.0.0 </tspan>
<tspan x="10" y="650">  │ ├── extend@3.0.0 </tspan>
<tspan x="10" y="666">  │ ├── forever-agent@0.6.1 </tspan>
<tspan x="10" y="682">  │ ├─┬ form-data@1.0.1 </tspan>
<tspan x="10" y="698">  │ │ └── async@2.3.0 </tspan>
<tspan x="10" y="714">  │ ├─┬ har-validator@2.0.6 </tspan>
<tspan x="10" y="730">  │ │ ├─┬ chalk@1.1.3 </tspan>
<tspan x="10" y="746">  │ │ │ ├── ansi-styles@2.2.1 </tspan>
<tspan x="10" y="762">  │ │ │ ├── escape-string-regexp@1.0.5 </tspan>
<tspan x="10" y="778">  │ │ │ ├─┬ has-ansi@2.0.0 </tspan>
<tspan x="10" y="794">  │ │ │ │ └── ansi-regex@2.1.1 </tspan>
<tspan x="10" y="810">  │ │ │ ├── strip-ansi@3.0.1 </tspan>
<tspan x="10" y="826">  │ │ │ └── supports-color@2.0.0 </tspan>
<tspan x="10" y="842">  │ │ ├─┬ commander@2.9.0 </tspan>
<tspan x="10" y="858">  │ │ │ └── graceful-readlink@1.0.1 </tspan>
<tspan x="10" y="874">  │ │ ├─┬ is-my-json-valid@2.16.0 </tspan>
<tspan x="10" y="890">  │ │ │ ├── generate-function@2.0.0 </tspan>
<tspan x="10" y="906">  │ │ │ ├─┬ generate-object-property@1.2.0 </tspan>
<tspan x="10" y="922">  │ │ │ │ └── is-property@1.0.2 </tspan>
<tspan x="10" y="938">  │ │ │ └── jsonpointer@4.0.1 </tspan>
<tspan x="10" y="954">  │ │ └─┬ pinkie-promise@2.0.1 </tspan>
<tspan x="10" y="970">  │ │   └── pinkie@2.0.4 </tspan>
<tspan x="10" y="986">  │ ├─┬ hawk@3.1.3 </tspan>
<tspan x="10" y="1002">  │ │ ├── boom@2.10.1 </tspan>
<tspan x="10" y="1018">  │ │ ├── cryptiles@2.0.5 </tspan>
<tspan x="10" y="1034">  │ │ ├── hoek@2.16.3 </tspan>
<tspan x="10" y="1050">  │ │ └── sntp@1.0.9 </tspan>
<tspan x="10" y="1066">  │ ├─┬ http-signature@1.1.1 </tspan>
<tspan x="10" y="1082">  │ │ ├── assert-plus@0.2.0 </tspan>
<tspan x="10" y="1098">  │ │ ├─┬ jsprim@1.4.0 </tspan>
<tspan x="10" y="1114">  │ │ │ ├── assert-plus@1.0.0 </tspan>
<tspan x="10" y="1130">  │ │ │ ├── extsprintf@1.0.2 </tspan>
<tspan x="10" y="1146">  │ │ │ ├── json-schema@0.2.3 </tspan>
<tspan x="10" y="1162">  │ │ │ └── verror@1.3.6 </tspan>
<tspan x="10" y="1178">  │ │ └─┬ sshpk@1.13.0 </tspan>
<tspan x="10" y="1194">  │ │   ├── asn1@0.2.3 </tspan>
<tspan x="10" y="1210">  │ │   ├── assert-plus@1.0.0 </tspan>
<tspan x="10" y="1226">  │ │   ├── bcrypt-pbkdf@1.0.1 </tspan>
<tspan x="10" y="1242">  │ │   ├─┬ dashdash@1.14.1 </tspan>
<tspan x="10" y="1258">  │ │   │ └── assert-plus@1.0.0 </tspan>
<tspan x="10" y="1274">  │ │   ├── ecc-jsbn@0.1.1 </tspan>
<tspan x="10" y="1290">  │ │   ├─┬ getpass@0.1.6 </tspan>
<tspan x="10" y="1306">  │ │   │ └── assert-plus@1.0.0 </tspan>
<tspan x="10" y="1322">  │ │   ├── jodid25519@1.0.2 </tspan>
<tspan x="10" y="1338">  │ │   ├── jsbn@0.1.1 </tspan>
<tspan x="10" y="1354">  │ │   └── tweetnacl@0.14.5 </tspan>
<tspan x="10" y="1370">  │ ├── is-typedarray@1.0.0 </tspan>
<tspan x="10" y="1386">  │ ├── isstream@0.1.2 </tspan>
<tspan x="10" y="1402">  │ ├── json-stringify-safe@5.0.1 </tspan>
<tspan x="10" y="1418">  │ ├─┬ mime-types@2.1.15 </tspan>
<tspan x="10" y="1434">  │ │ └── mime-db@1.27.0 </tspan>
<tspan x="10" y="1450">  │ ├── node-uuid@1.4.8 </tspan>
<tspan x="10" y="1466">  │ ├── oauth-sign@0.8.2 </tspan>
<tspan x="10" y="1482">  │ ├── qs@6.2.3 </tspan>
<tspan x="10" y="1498">  │ ├── stringstream@0.0.5 </tspan>
<tspan x="10" y="1514">  │ ├─┬ tough-cookie@2.3.2 </tspan>
<tspan x="10" y="1530">  │ │ └── punycode@1.4.1 </tspan>
<tspan x="10" y="1546">  │ └── tunnel-agent@0.4.3 </tspan>
<tspan x="10" y="1562">  ├─┬ stormpath-config@0.0.27 </tspan>
<tspan x="10" y="1578">  │ ├── async@2.3.0 </tspan>
<tspan x="10" y="1594">  │ ├─┬ flat@2.0.1 </tspan>
<tspan x="10" y="1610">  │ │ └── is-buffer@1.1.5 </tspan>
<tspan x="10" y="1626">  │ ├─┬ js-yaml@3.8.3 </tspan>
<tspan x="10" y="1642">  │ │ ├─┬ argparse@1.0.9 </tspan>
<tspan x="10" y="1658">  │ │ │ └── sprintf-js@1.0.3 </tspan>
<tspan x="10" y="1674">  │ │ └── esprima@3.1.3 </tspan>
<tspan x="10" y="1690">  │ └── lodash@4.17.4 </tspan>
<tspan x="10" y="1706">  ├── underscore@1.5.2 </tspan>
<tspan x="10" y="1722">  ├── underscore.string@3.2.3 </tspan>
<tspan x="10" y="1738">  ├── uuid@3.0.1 </tspan>
<tspan x="10" y="1754">  └── xtend@4.0.1</tspan>
</text>
</svg>
